{
    "asset" : {
        "generator" : "Khronos glTF Blender I/O v1.4.40",
        "version" : "2.0"
    },
    "scene" : 0,
    "scenes" : [
        {
            "name" : "Scene",
            "nodes" : [
                0,
                1,
                2,
                3,
                4,
                5,
                6,
                7
            ]
        }
    ],
    "nodes" : [
        {
            "mesh" : 0,
            "name" : "Cylinder",
            "scale" : [
                1,
                0.5344824194908142,
                1
            ]
        },
        {
            "mesh" : 1,
            "name" : "Cylinder.001",
            "scale" : [
                1,
                0.5344824194908142,
                1
            ],
            "translation" : [
                0,
                1.0510873794555664,
                0
            ]
        },
        {
            "mesh" : 2,
            "name" : "Cube",
            "translation" : [
                0,
                2.5465850830078125,
                0
            ]
        },
        {
            "mesh" : 3,
            "name" : "Cylinder.002",
            "scale" : [
                1.398883581161499,
                0.8281532526016235,
                1.398883581161499
            ],
            "translation" : [
                0,
                4.332000732421875,
                0
            ]
        },
        {
            "mesh" : 4,
            "name" : "Cube.001",
            "scale" : [
                2.681239366531372,
                1,
                0.39109814167022705
            ],
            "translation" : [
                0,
                6.141530513763428,
                0
            ]
        },
        {
            "mesh" : 5,
            "name" : "Cube.002",
            "scale" : [
                0.6215983629226685,
                0.6215983629226685,
                0.6215983629226685
            ],
            "translation" : [
                -1.2600924968719482,
                7.7706298828125,
                0
            ]
        },
        {
            "mesh" : 6,
            "name" : "Cylinder.003",
            "scale" : [
                0.5113166570663452,
                0.7862196564674377,
                0.5113166570663452
            ],
            "translation" : [
                0,
                9.093233108520508,
                0
            ]
        },
        {
            "name" : "Camera",
            "rotation" : [
                0.9998597502708435,
                0,
                0.01675335504114628,
                -4.84454290017311e-08
            ],
            "translation" : [
                0,
                -5.604557037353516,
                0
            ]
        }
    ],
    "meshes" : [
        {
            "name" : "Cylinder",
            "primitives" : [
                {
                    "attributes" : {
                        "POSITION" : 0,
                        "NORMAL" : 1,
                        "TEXCOORD_0" : 2
                    },
                    "indices" : 3
                }
            ]
        },
        {
            "name" : "Cylinder.001",
            "primitives" : [
                {
                    "attributes" : {
                        "POSITION" : 4,
                        "NORMAL" : 5,
                        "TEXCOORD_0" : 6
                    },
                    "indices" : 7
                }
            ]
        },
        {
            "name" : "Cube.001",
            "primitives" : [
                {
                    "attributes" : {
                        "POSITION" : 8,
                        "NORMAL" : 9,
                        "TEXCOORD_0" : 10
                    },
                    "indices" : 11
                }
            ]
        },
        {
            "name" : "Cylinder.002",
            "primitives" : [
                {
                    "attributes" : {
                        "POSITION" : 12,
                        "NORMAL" : 13,
                        "TEXCOORD_0" : 14
                    },
                    "indices" : 15
                }
            ]
        },
        {
            "name" : "Cube.002",
            "primitives" : [
                {
                    "attributes" : {
                        "POSITION" : 16,
                        "NORMAL" : 17,
                        "TEXCOORD_0" : 18
                    },
                    "indices" : 19
                }
            ]
        },
        {
            "name" : "Cube.003",
            "primitives" : [
                {
                    "attributes" : {
                        "POSITION" : 20,
                        "NORMAL" : 21,
                        "TEXCOORD_0" : 22
                    },
                    "indices" : 23
                }
            ]
        },
        {
            "name" : "Cylinder.003",
            "primitives" : [
                {
                    "attributes" : {
                        "POSITION" : 24,
                        "NORMAL" : 25,
                        "TEXCOORD_0" : 26
                    },
                    "indices" : 27
                }
            ]
        }
    ],
    "accessors" : [
        {
            "bufferView" : 0,
            "componentType" : 5126,
            "count" : 192,
            "max" : [
                1.702635645866394,
                1,
                1.7026358842849731
            ],
            "min" : [
                -1.7026357650756836,
                -1,
                -1.7026352882385254
            ],
            "type" : "VEC3"
        },
        {
            "bufferView" : 1,
            "componentType" : 5126,
            "count" : 192,
            "type" : "VEC3"
        },
        {
            "bufferView" : 2,
            "componentType" : 5126,
            "count" : 192,
            "type" : "VEC2"
        },
        {
            "bufferView" : 3,
            "componentType" : 5123,
            "count" : 372,
            "type" : "SCALAR"
        },
        {
            "bufferView" : 4,
            "componentType" : 5126,
            "count" : 192,
            "max" : [
                2.372096300125122,
                1,
                2.3720972537994385
            ],
            "min" : [
                -2.3720970153808594,
                -1,
                -2.3720967769622803
            ],
            "type" : "VEC3"
        },
        {
            "bufferView" : 5,
            "componentType" : 5126,
            "count" : 192,
            "type" : "VEC3"
        },
        {
            "bufferView" : 6,
            "componentType" : 5126,
            "count" : 192,
            "type" : "VEC2"
        },
        {
            "bufferView" : 7,
            "componentType" : 5123,
            "count" : 372,
            "type" : "SCALAR"
        },
        {
            "bufferView" : 8,
            "componentType" : 5126,
            "count" : 60,
            "max" : [
                1,
                1,
                2.5524630546569824
            ],
            "min" : [
                -1,
                -1,
                -2.5524630546569824
            ],
            "type" : "VEC3"
        },
        {
            "bufferView" : 9,
            "componentType" : 5126,
            "count" : 60,
            "type" : "VEC3"
        },
        {
            "bufferView" : 10,
            "componentType" : 5126,
            "count" : 60,
            "type" : "VEC2"
        },
        {
            "bufferView" : 11,
            "componentType" : 5123,
            "count" : 144,
            "type" : "SCALAR"
        },
        {
            "bufferView" : 12,
            "componentType" : 5126,
            "count" : 192,
            "max" : [
                1,
                1,
                1
            ],
            "min" : [
                -1,
                -1,
                -1
            ],
            "type" : "VEC3"
        },
        {
            "bufferView" : 13,
            "componentType" : 5126,
            "count" : 192,
            "type" : "VEC3"
        },
        {
            "bufferView" : 14,
            "componentType" : 5126,
            "count" : 192,
            "type" : "VEC2"
        },
        {
            "bufferView" : 15,
            "componentType" : 5123,
            "count" : 372,
            "type" : "SCALAR"
        },
        {
            "bufferView" : 16,
            "componentType" : 5126,
            "count" : 214,
            "max" : [
                0.9260917901992798,
                1,
                2.1399383544921875
            ],
            "min" : [
                -1.0435184240341187,
                -1,
                -1
            ],
            "type" : "VEC3"
        },
        {
            "bufferView" : 17,
            "componentType" : 5126,
            "count" : 214,
            "type" : "VEC3"
        },
        {
            "bufferView" : 18,
            "componentType" : 5126,
            "count" : 214,
            "type" : "VEC2"
        },
        {
            "bufferView" : 19,
            "componentType" : 5123,
            "count" : 492,
            "type" : "SCALAR"
        },
        {
            "bufferView" : 20,
            "componentType" : 5126,
            "count" : 44,
            "max" : [
                3.1749963760375977,
                1,
                3.243504524230957
            ],
            "min" : [
                -1.4321179389953613,
                -1,
                -1
            ],
            "type" : "VEC3"
        },
        {
            "bufferView" : 21,
            "componentType" : 5126,
            "count" : 44,
            "type" : "VEC3"
        },
        {
            "bufferView" : 22,
            "componentType" : 5126,
            "count" : 44,
            "type" : "VEC2"
        },
        {
            "bufferView" : 23,
            "componentType" : 5123,
            "count" : 84,
            "type" : "SCALAR"
        },
        {
            "bufferView" : 24,
            "componentType" : 5126,
            "count" : 192,
            "max" : [
                2.0383853912353516,
                1,
                2.2142529487609863
            ],
            "min" : [
                -1.878845453262329,
                -1,
                -1.9863498210906982
            ],
            "type" : "VEC3"
        },
        {
            "bufferView" : 25,
            "componentType" : 5126,
            "count" : 192,
            "type" : "VEC3"
        },
        {
            "bufferView" : 26,
            "componentType" : 5126,
            "count" : 192,
            "type" : "VEC2"
        },
        {
            "bufferView" : 27,
            "componentType" : 5123,
            "count" : 372,
            "type" : "SCALAR"
        }
    ],
    "bufferViews" : [
        {
            "buffer" : 0,
            "byteLength" : 2304,
            "byteOffset" : 0
        },
        {
            "buffer" : 0,
            "byteLength" : 2304,
            "byteOffset" : 2304
        },
        {
            "buffer" : 0,
            "byteLength" : 1536,
            "byteOffset" : 4608
        },
        {
            "buffer" : 0,
            "byteLength" : 744,
            "byteOffset" : 6144
        },
        {
            "buffer" : 0,
            "byteLength" : 2304,
            "byteOffset" : 6888
        },
        {
            "buffer" : 0,
            "byteLength" : 2304,
            "byteOffset" : 9192
        },
        {
            "buffer" : 0,
            "byteLength" : 1536,
            "byteOffset" : 11496
        },
        {
            "buffer" : 0,
            "byteLength" : 744,
            "byteOffset" : 13032
        },
        {
            "buffer" : 0,
            "byteLength" : 720,
            "byteOffset" : 13776
        },
        {
            "buffer" : 0,
            "byteLength" : 720,
            "byteOffset" : 14496
        },
        {
            "buffer" : 0,
            "byteLength" : 480,
            "byteOffset" : 15216
        },
        {
            "buffer" : 0,
            "byteLength" : 288,
            "byteOffset" : 15696
        },
        {
            "buffer" : 0,
            "byteLength" : 2304,
            "byteOffset" : 15984
        },
        {
            "buffer" : 0,
            "byteLength" : 2304,
            "byteOffset" : 18288
        },
        {
            "buffer" : 0,
            "byteLength" : 1536,
            "byteOffset" : 20592
        },
        {
            "buffer" : 0,
            "byteLength" : 744,
            "byteOffset" : 22128
        },
        {
            "buffer" : 0,
            "byteLength" : 2568,
            "byteOffset" : 22872
        },
        {
            "buffer" : 0,
            "byteLength" : 2568,
            "byteOffset" : 25440
        },
        {
            "buffer" : 0,
            "byteLength" : 1712,
            "byteOffset" : 28008
        },
        {
            "buffer" : 0,
            "byteLength" : 984,
            "byteOffset" : 29720
        },
        {
            "buffer" : 0,
            "byteLength" : 528,
            "byteOffset" : 30704
        },
        {
            "buffer" : 0,
            "byteLength" : 528,
            "byteOffset" : 31232
        },
        {
            "buffer" : 0,
            "byteLength" : 352,
            "byteOffset" : 31760
        },
        {
            "buffer" : 0,
            "byteLength" : 168,
            "byteOffset" : 32112
        },
        {
            "buffer" : 0,
            "byteLength" : 2304,
            "byteOffset" : 32280
        },
        {
            "buffer" : 0,
            "byteLength" : 2304,
            "byteOffset" : 34584
        },
        {
            "buffer" : 0,
            "byteLength" : 1536,
            "byteOffset" : 36888
        },
        {
            "buffer" : 0,
            "byteLength" : 744,
            "byteOffset" : 38424
        }
    ],
    "buffers" : [
        {
            "byteLength" : 39168,
            "uri" : "data:application/octet-stream;base64,"
        }
    ]
}
